<svg width="36" height="37" viewBox="0 0 36 37" fill="none" xmlns="http://www.w3.org/2000/svg">
<circle cx="18" cy="18.1181" r="18" fill="#FFE7E7"/>
<g clip-path="url(#clip0)">
<path d="M8.625 23.9515H14.535C18.3283 23.9515 19.6442 18.9206 16.2908 17.1156C18.5417 15.154 17.1483 11.4515 14.1283 11.4515H8.625C8.28 11.4515 8 11.7315 8 12.0765V23.3265C8 23.6715 8.28 23.9515 8.625 23.9515ZM9.25 12.7015H14.1283C16.8042 12.7015 16.8075 16.6748 14.1283 16.6748H9.25V12.7015ZM9.25 17.9248H14.535C17.7525 17.9248 17.7525 22.7015 14.535 22.7015H9.25V17.9248Z" fill="#4B4B4B"/>
<path d="M23.3116 14.6656C20.5958 14.6656 18.5158 17.0723 18.6158 18.9648C18.4099 21.6981 20.6133 23.9514 23.3116 23.9514C24.9882 23.9514 26.5516 23.0639 27.3907 21.6339C27.8099 20.9198 26.7316 20.2898 26.3132 21.0006C25.6974 22.0498 24.5466 22.7014 23.3116 22.7014C21.4891 22.7014 20.0074 21.3114 19.8741 19.5589C21.0766 19.5731 23.3208 19.4023 27.3632 19.5314C27.3766 19.5314 27.3857 19.5248 27.3982 19.5248C29.0649 19.4498 27.2407 14.6656 23.3116 14.6656ZM20.0383 18.2473C21.1099 15.0898 25.6366 15.1839 26.6132 18.3006C23.2266 18.3814 21.1999 18.2456 20.0383 18.2473Z" fill="#4B4B4B"/>
<path d="M25.7567 13.5048C26.5842 13.5048 26.5834 12.2548 25.7567 12.2548H20.8651C20.0376 12.2548 20.0384 13.5048 20.8651 13.5048H25.7567Z" fill="#4B4B4B"/>
</g>
<defs>
<clipPath id="clip0">
<rect width="20" height="20" fill="white" transform="translate(8 8.1181)"/>
</clipPath>
</defs>
</svg>
