<svg width="36" height="37" viewBox="0 0 36 37" fill="none" xmlns="http://www.w3.org/2000/svg">
<circle cx="18" cy="18.1181" r="18" fill="#FFE7E7"/>
<g clip-path="url(#clip0)">
<path d="M19.3503 28.079H16.1412C15.6052 28.079 15.1691 27.6439 15.1691 27.1089V19.8848H13.2969C12.7609 19.8848 12.3248 19.4494 12.3248 18.9146V15.8191C12.3248 15.2841 12.7609 14.8489 13.2969 14.8489H15.1691V13.2988C15.1691 11.7617 15.6527 10.4541 16.5674 9.51733C17.4863 8.57632 18.7704 8.07904 20.2809 8.07904L22.7283 8.08301C23.2634 8.08392 23.6987 8.5191 23.6987 9.05316V11.9273C23.6987 12.4623 23.2628 12.8975 22.7269 12.8975L21.0791 12.8981C20.5766 12.8981 20.4486 12.9986 20.4212 13.0294C20.3761 13.0806 20.3225 13.2251 20.3225 13.6241V14.8488H22.6031C22.7748 14.8488 22.9411 14.891 23.0841 14.9707C23.3924 15.1426 23.5842 15.4678 23.5842 15.8192L23.5829 18.9148C23.5829 19.4494 23.1469 19.8846 22.6109 19.8846H20.3225V27.1089C20.3225 27.6439 19.8863 28.079 19.3503 28.079ZM16.3439 26.9066H19.1475V19.3599C19.1475 19.0027 19.4388 18.7121 19.7965 18.7121H22.4082L22.4092 16.0214H19.7964C19.4386 16.0214 19.1475 15.7309 19.1475 15.3737V13.6241C19.1475 13.166 19.1942 12.6451 19.5406 12.2535C19.9592 11.7802 20.6189 11.7256 21.0788 11.7256L22.5239 11.725V9.25519L20.28 9.25153C17.8524 9.25153 16.3439 10.8024 16.3439 13.2988V15.3737C16.3439 15.7307 16.0528 16.0214 15.6951 16.0214H13.4996V18.7121H15.6951C16.0528 18.7121 16.3439 19.0027 16.3439 19.3599V26.9066ZM22.726 9.25549H22.7262H22.726Z" fill="#4B4B4B"/>
</g>
<defs>
<clipPath id="clip0">
<rect width="20" height="20" fill="white" transform="translate(8 8.1181)"/>
</clipPath>
</defs>
</svg>
