<svg width="36" height="37" viewBox="0 0 36 37" fill="none" xmlns="http://www.w3.org/2000/svg">
<circle cx="18" cy="18.1181" r="18" fill="#FFE7E7"/>
<g clip-path="url(#clip0)">
<path d="M26.125 10.6181H9.87501C8.84107 10.6181 8 11.4592 8 12.4931V23.7431C8 24.7771 8.84107 25.6181 9.87501 25.6181H26.125C27.1589 25.6181 28 24.7771 28 23.7431V12.4931C28 11.4592 27.1589 10.6181 26.125 10.6181ZM26.125 11.8681C26.2099 11.8681 26.2907 11.8857 26.3645 11.9165L18 19.1661L9.63542 11.9165C9.70927 11.8858 9.79005 11.8681 9.87497 11.8681H26.125ZM26.125 24.3681H9.87501C9.53017 24.3681 9.24999 24.088 9.24999 23.7431V13.2371L17.5904 20.4655C17.7083 20.5674 17.8541 20.6181 18 20.6181C18.1459 20.6181 18.2917 20.5675 18.4096 20.4655L26.75 13.2371V23.7431C26.75 24.088 26.4698 24.3681 26.125 24.3681Z" fill="#4B4B4B"/>
</g>
<defs>
<clipPath id="clip0">
<rect width="20" height="20" fill="white" transform="translate(8 8.1181)"/>
</clipPath>
</defs>
</svg>
