<svg width="498" height="472" viewBox="0 0 498 472" fill="none" xmlns="http://www.w3.org/2000/svg">
<g id="Group 5">
<g id="square-container" filter="url(#filter0_d)">
<rect x="17" y="228.762" width="304.747" height="308.178" rx="15" transform="rotate(-44.5428 17 228.762)" stroke="#7588CF" stroke-width="4" stroke-linejoin="round"/>
</g>
<g id="square-back" filter="url(#filter1_d)">
<rect x="36" y="228.762" width="281.769" height="281.769" rx="15" transform="rotate(-44.5428 36 228.762)" fill="#B4F4ED"/>
</g>
<g id="square-front" filter="url(#filter2_d)">
<rect x="187" y="229.906" width="206.584" height="206.584" rx="15" transform="rotate(-44.5428 187 229.906)" fill="#B0FF72" fill-opacity="0.5"/>
</g>
<g id="Layer 2">
<g id="Layer 1">
<path id="Vector" d="M180.656 327.002C169.345 321.83 171.125 315.698 158.111 309.763C141.037 301.998 125.933 307.05 121.739 298.37C120.468 295.745 120.468 292.924 121.046 289.639C125.342 265.772 141.437 269.489 145.726 262.157C148.16 258.001 146.267 253.083 145.529 250.719C142.543 241.047 129.974 192.894 144.589 173.641C153.949 161.313 176.119 158.626 186 166.105C193.549 171.823 194.839 184.036 194.947 183.998C195.055 183.96 182.963 160.386 190.817 150.613C194.89 145.529 202.839 144.957 212.059 146.495C247.847 152.462 296.502 122.349 297.754 174.117C299.005 225.886 308.747 205.196 330.091 218.382C333.605 220.548 335.695 223.027 336.75 225.714C342.183 239.529 321.836 251.716 322.872 271.122C323.87 289.874 344.871 300.607 341.255 305.95C338.237 310.399 324.613 301.299 308.6 307.279C300.638 310.252 299.374 314.268 292.715 319.047C276.066 331.012 262.97 318.913 225.086 324.683C201.212 328.318 192.85 332.581 180.656 327.002Z" fill="#273676"/>
<path id="Vector_2" d="M268.015 285.731L284.371 351.708C282.408 373.815 262.303 388.633 243.647 385.259C222.607 381.446 217.009 347.133 216.603 344.496C215.585 337.636 215.733 330.654 217.041 323.844" fill="#FBCDCC"/>
<path id="Vector_3" d="M216.66 326.113C220.012 328.915 224.07 330.744 228.39 331.4C238.836 332.798 247.383 325.833 255.586 319.142C261.856 314.015 267.339 307.994 271.86 301.274L270.074 294.284L216.66 326.113Z" fill="#E5A5A1"/>
<path id="Vector_4" d="M182.378 208.825C181.552 217.568 177.053 268.428 188.968 298.294C192.958 308.289 197.775 313.41 201.041 316.219C204.307 319.028 215.135 327.581 230.43 326.545C249.524 325.274 259.939 310.208 261.197 308.333C266.725 302.301 270.615 294.952 272.495 286.989C273.882 281.019 274.098 274.836 273.131 268.784C280.68 271.605 288.292 268.555 290.707 263.129C292.384 259.373 291.831 253.87 288.165 250.573C284.683 247.395 280.197 247.948 279.377 248.031C277.25 248.379 275.254 249.291 273.598 250.671C271.942 252.051 270.686 253.849 269.96 255.878V255.878C270.392 253.102 274.154 226.318 255.834 208.793C237.953 191.719 206.423 190.499 182.378 208.825Z" fill="#FBCDCC"/>
<path id="Vector_5" d="M180.377 205.038C210.528 201.733 225.727 208.939 234.058 216.812C241.048 223.395 246.188 233.282 259.958 239.885C266.028 242.761 272.568 244.516 279.263 245.063C282.44 220.625 269.274 196.968 247.237 187.144C223.961 176.786 195.964 184.125 180.377 205.038Z" fill="#273676"/>
<path id="Vector_6" d="M217.136 189.971C215.701 197.963 212.482 205.528 207.719 212.103C200.094 222.429 192.653 224.037 184.647 233.289C180.072 238.576 174.531 247.268 171.938 261.546C168.38 253.038 163.677 237.991 166.937 220.294C168.208 213.489 169.651 205.457 175.833 198.766C189.756 183.776 214.734 189.399 217.136 189.971Z" fill="#273676"/>
<path id="Vector_7" d="M108.884 460.411C127.54 449.45 149.34 440.097 180 438.031C227.5 442.118 238.773 453.943 280.927 446.489C315.577 440.363 328.496 423.035 360.159 428.754C380.982 432.51 388.754 442.403 394.307 438.031C406.381 428.583 388.271 368.325 348.417 344.331C332.116 334.781 313.564 329.749 294.672 329.754C291.16 329.782 287.651 329.994 284.162 330.389C268.651 359.956 256.584 367.282 247.605 366.691C231.211 365.618 212.472 337.309 212.472 337.303C199.795 338.669 178.051 342.945 157.101 358.228C109.634 392.833 108.859 452.894 108.884 460.411Z" fill="#FFDFDF"/>
<path id="Vector_8" d="M201.251 255.364C201.524 257.34 199.471 259.31 197.311 259.31C195.15 259.31 193.098 257.34 193.365 255.364C193.606 253.585 195.64 252.453 197.381 252.479C199.122 252.504 201.035 253.623 201.251 255.364Z" fill="#292929"/>
<path id="Vector_9" d="M235.176 251.418C235.545 253.165 233.474 255.364 231.23 255.364C228.987 255.364 226.916 253.159 227.291 251.418C227.602 249.943 229.585 249.194 230.97 249.124C232.622 249.041 234.846 249.861 235.176 251.418Z" fill="#76274D"/>
<path id="Vector_10" d="M217.136 261.083C217.136 261.083 217.607 273.315 215.02 275.907C212.434 278.5 215.726 282.026 220.434 279.91L225.143 277.788" stroke="#273676" stroke-linecap="round" stroke-linejoin="round"/>
<path id="Vector_11" d="M192.621 245.063C192.621 245.063 196.034 243.297 199.096 244.002C202.159 244.708 203.335 245.063 203.335 245.063" stroke="#273676" stroke-linecap="round" stroke-linejoin="round"/>
<path id="Vector_12" d="M225.874 243.443C225.874 243.443 229.292 241.683 232.349 242.401C235.405 243.119 236.587 243.468 236.587 243.468" stroke="#273676" stroke-linecap="round" stroke-linejoin="round"/>
<path id="Vector_13" d="M214.08 295.745C214.039 295.78 214.007 295.823 213.985 295.871C213.963 295.919 213.952 295.972 213.953 296.025C214.041 296.845 218.826 297.182 222.264 296.864C225.386 296.563 228.423 295.677 231.217 294.252" fill="#273676"/>
<path id="Vector_14" d="M280.616 263.942C280.616 263.942 283.653 257.029 281.97 255.046C280.286 253.063 274.344 258.96 274.344 258.96" stroke="#273676" stroke-miterlimit="10"/>
<path id="Vector_15" opacity="0.24" d="M215.184 247.558L246.562 245.995C246.562 245.995 250.629 267.18 232.5 268.515C214.371 269.849 215.184 247.558 215.184 247.558Z" fill="#273676"/>
<path id="Vector_16" opacity="0.24" d="M179.006 249.563L210.434 248C210.434 248 214.514 269.223 196.347 270.558C178.18 271.892 179.006 249.563 179.006 249.563Z" fill="#273676"/>
<path id="Vector_17" d="M210.051 253.038C210.758 252.148 211.784 251.569 212.911 251.424C213.57 251.362 214.235 251.446 214.858 251.671C215.481 251.897 216.047 252.257 216.514 252.727" stroke="#273676" stroke-linecap="round" stroke-linejoin="round"/>
<path id="Vector_18" opacity="0.42" d="M216.514 253.388C216.802 253.388 217.035 253.154 217.035 252.866C217.035 252.579 216.802 252.345 216.514 252.345C216.226 252.345 215.993 252.579 215.993 252.866C215.993 253.154 216.226 253.388 216.514 253.388Z" stroke="#273676" stroke-width="0.25" stroke-linecap="round" stroke-linejoin="round"/>
<path id="Vector_19" opacity="0.42" d="M210.051 253.673C210.339 253.673 210.572 253.44 210.572 253.152C210.572 252.865 210.339 252.631 210.051 252.631C209.764 252.631 209.53 252.865 209.53 253.152C209.53 253.44 209.764 253.673 210.051 253.673Z" stroke="#273676" stroke-width="0.25" stroke-linecap="round" stroke-linejoin="round"/>
<path id="Vector_20" d="M247.116 249.117H272.743V249.702C262.627 249.702 256.965 249.994 253.553 250.337C252.117 250.477 247.389 250.973 247.103 249.969C247.08 249.886 247.08 249.798 247.103 249.715" fill="#273676"/>
<path id="Vector_21" d="M205.736 338.135C205.736 338.135 231.294 374.99 250.153 372.658C269.013 370.326 291.583 329.69 291.583 329.69L284.181 330.326C281.295 336.822 277.611 342.933 273.213 348.518C266.045 357.611 259.037 366.494 249.308 366.647C243.011 366.742 237.711 363.152 233.016 359.969C228.784 357.103 226.134 354.199 221.984 349.662C218.455 345.812 215.28 341.653 212.497 337.233" fill="#30618F"/>
<path id="Vector_22" d="M301.706 198.836C301.782 201.435 302.341 205.018 304.813 207.732C308.886 212.18 314.51 210.273 322.84 213.012C327.091 214.41 335.816 217.314 338.694 224.329C341.872 232.062 336.604 241.549 334.488 245.362C331.692 250.401 330.078 250.56 328.026 255.472C326.136 260.322 325.342 265.529 325.7 270.722C326.736 283.17 336.159 292.143 337.64 293.515" stroke="#273775" stroke-width="0.75" stroke-linecap="round" stroke-linejoin="round"/>
<path id="Vector_23" d="M307.488 219.144C310.195 219.78 320.832 222.645 323.336 230.461C325.198 236.237 322.002 242.814 317.852 251.335C315.406 256.361 314.211 257.302 312.667 261.604C310.937 266.495 310.15 271.67 310.348 276.854" stroke="#DDDDDD" stroke-linecap="round" stroke-linejoin="round"/>
<path id="Vector_24" d="M180.377 160.506C164.891 155.772 149.488 159.63 141.85 169.885C137.504 175.712 136.691 182.232 136.615 186.203" stroke="#273775" stroke-width="0.75" stroke-linecap="round" stroke-linejoin="round"/>
<path id="Vector_25" opacity="0.54" d="M201.486 336.648C183.237 340.166 166.098 348.011 151.509 359.524C126.498 379.387 117.119 404.08 113.961 412.735C111.407 419.717 109.493 426.916 108.242 434.244" stroke="#273775" stroke-width="0.75" stroke-linecap="round" stroke-linejoin="round"/>
<path id="Vector_26" d="M116.675 398.355C107.856 416.789 103.188 436.933 103 457.368" stroke="#273775" stroke-width="0.75" stroke-linecap="round" stroke-linejoin="round"/>
<path id="Vector_27" d="M115.194 387.858L113.828 391.848H109.837L113.936 393.386L115.194 395.845L116.509 393.329L120.888 392.725L116.401 391.302L115.194 387.858Z" fill="#A6B4DC"/>
<path id="Vector_28" d="M113.72 392.102L113.033 394.098H111.038L113.091 394.86L113.72 396.093L114.374 394.835L116.566 394.536L114.323 393.824L113.72 392.102Z" fill="#3859A8"/>
<path id="Vector_29" d="M334.818 266.592L332.963 272.006H327.543L333.109 274.084L334.818 277.426L336.598 274.007L342.533 273.194L336.451 271.262L334.818 266.592Z" fill="#A6B4DC"/>
<path id="Vector_30" d="M332.817 272.342L331.889 275.049H329.176L331.959 276.092L332.817 277.763L333.706 276.053L336.674 275.647L333.63 274.681L332.817 272.342Z" fill="#3859A8"/>
<path id="Vector_31" d="M154.864 359.829C184.672 387.921 226.198 395.743 258.579 380.016C287.993 365.738 298.993 337.303 301.604 329.894L305.309 330.802C303.206 337.252 291.997 369.456 259.558 384.268C226.109 399.537 183.744 390.075 154.864 359.829Z" fill="#30618F"/>
<path id="Vector_32" d="M310.418 378.854C305.169 383.302 266.726 414.724 214.938 404.964C177.003 397.809 154.864 372.868 148.51 365.173L145.612 367.867C154.508 378.167 179.29 404.023 217.448 409.17C269.712 416.274 311.041 378.333 310.418 378.854Z" fill="#30618F"/>
<path id="#Ng&#195;&#162;n" d="M255.299 325.159L255.24 325.089C255.229 325.074 255.217 325.041 255.202 324.988C255.188 324.931 255.172 324.885 255.156 324.85C255.139 324.81 255.132 324.784 255.134 324.772C255.136 324.759 255.125 324.724 255.1 324.667C255.073 324.607 255.06 324.566 255.062 324.544C255.064 324.521 255.048 324.482 255.016 324.428C254.984 324.369 254.974 324.311 254.987 324.255C254.956 324.226 254.934 324.177 254.922 324.107C254.912 324.034 254.887 323.979 254.848 323.943C254.825 323.921 254.79 323.935 254.744 323.985L254.707 324.024L254.607 324.084C254.592 324.089 254.575 324.103 254.556 324.123L254.527 324.155L254.444 324.275C254.354 324.371 254.241 324.355 254.102 324.226C254.011 324.141 254.008 324.053 254.093 323.962L254.181 323.789C254.186 323.784 254.202 323.777 254.23 323.769C254.257 323.76 254.273 323.753 254.278 323.748L254.318 323.69L254.519 323.505L254.541 323.482C254.65 323.365 254.673 323.264 254.609 323.181C254.543 323.095 254.511 323.002 254.513 322.901C254.517 322.896 254.513 322.88 254.5 322.852C254.486 322.825 254.478 322.776 254.475 322.706C254.473 322.63 254.453 322.576 254.417 322.542C254.396 322.522 254.343 322.558 254.258 322.649L254.214 322.696L254.151 322.732C254.137 322.738 254.117 322.754 254.093 322.78L254.071 322.803L253.988 322.908C253.893 323.01 253.777 322.996 253.639 322.868C253.558 322.793 253.562 322.697 253.651 322.58L253.683 322.515C253.702 322.474 253.716 322.448 253.726 322.438C253.73 322.433 253.745 322.425 253.77 322.414C253.792 322.4 253.847 322.359 253.936 322.291L253.957 322.267C254.137 322.074 254.209 321.952 254.175 321.901C254.138 321.846 254.124 321.814 254.134 321.804C254.127 321.696 254.099 321.594 254.047 321.497C253.996 321.401 253.976 321.326 253.986 321.273C253.958 321.251 253.931 321.178 253.907 321.053L253.874 320.993C253.864 320.973 253.86 320.953 253.865 320.933C253.867 320.91 253.854 320.867 253.826 320.802C253.799 320.738 253.782 320.693 253.776 320.668C253.768 320.641 253.762 320.618 253.759 320.601L253.718 320.534C253.692 320.51 253.686 320.485 253.701 320.459C253.715 320.434 253.706 320.384 253.673 320.309L253.639 320.22L253.596 320.165C253.468 319.978 253.393 319.808 253.37 319.655L253.298 319.544C253.293 319.534 253.299 319.489 253.316 319.408L253.307 319.37C253.289 319.285 253.287 319.23 253.301 319.204L253.316 319.189L253.402 319.072C253.422 319.051 253.482 319.049 253.583 319.066C253.684 319.077 253.755 319.101 253.794 319.138C253.924 319.259 253.999 319.424 254.019 319.632L254.111 319.791L254.209 320.211L254.275 320.367C254.316 320.434 254.33 320.494 254.32 320.547C254.309 320.6 254.314 320.636 254.335 320.656C254.447 320.77 254.496 320.906 254.481 321.062C254.488 321.097 254.511 321.148 254.551 321.215C254.591 321.276 254.608 321.331 254.602 321.379C254.596 321.427 254.6 321.457 254.613 321.469C254.629 321.484 254.661 321.465 254.709 321.413C254.755 321.364 254.782 321.33 254.789 321.312C254.796 321.294 254.804 321.28 254.814 321.27C254.823 321.259 254.837 321.25 254.854 321.242C254.871 321.234 254.885 321.224 254.895 321.214C254.902 321.206 254.908 321.195 254.912 321.179L254.927 321.164L255.062 321.034C255.072 321.024 255.075 321.015 255.072 321.007C255.07 321 255.071 320.994 255.076 320.988L255.193 320.901C255.261 320.828 255.281 320.749 255.253 320.665C255.243 320.655 255.234 320.633 255.228 320.598C255.224 320.56 255.213 320.52 255.193 320.478C255.172 320.434 255.162 320.397 255.163 320.37C255.165 320.342 255.15 320.303 255.118 320.254C255.083 320.202 255.07 320.166 255.08 320.146L255.089 320.089C255.073 320.069 255.057 320.032 255.04 319.977C255.023 319.923 255.003 319.878 254.982 319.843C254.963 319.806 254.953 319.77 254.952 319.735C254.95 319.695 254.935 319.639 254.904 319.567C254.871 319.492 254.855 319.445 254.854 319.425L254.814 319.358C254.803 319.338 254.8 319.311 254.803 319.276C254.804 319.238 254.793 319.19 254.768 319.133L254.735 319.044L254.691 318.989C254.609 318.883 254.55 318.767 254.513 318.64C254.508 318.582 254.471 318.489 254.401 318.361L254.388 318.335C254.408 318.261 254.412 318.196 254.4 318.141C254.388 318.086 254.387 318.049 254.396 318.028L254.411 318.013L254.498 317.896C254.517 317.875 254.575 317.871 254.671 317.883C254.769 317.892 254.839 317.916 254.881 317.954C255.024 318.088 255.099 318.253 255.106 318.449L255.207 318.615C255.228 318.708 255.258 318.85 255.297 319.043L255.395 319.243C255.419 319.285 255.425 319.329 255.411 319.375C255.398 319.421 255.402 319.458 255.423 319.488C255.54 319.597 255.591 319.73 255.577 319.887C255.578 319.917 255.593 319.955 255.622 320.002C255.652 320.044 255.67 320.081 255.679 320.113C255.688 320.146 255.695 320.164 255.7 320.169C255.716 320.184 255.747 320.166 255.793 320.117L255.822 320.086L255.888 320.03C255.924 319.991 255.946 319.963 255.953 319.945C255.96 319.927 255.97 319.91 255.985 319.895C255.995 319.884 256.021 319.87 256.063 319.85C256.107 319.829 256.149 319.802 256.188 319.77C256.225 319.736 256.254 319.729 256.274 319.748C256.366 319.76 256.415 319.77 256.423 319.777C256.537 319.884 256.571 320.002 256.522 320.133C256.476 320.26 256.424 320.355 256.366 320.418C256.347 320.438 256.323 320.456 256.296 320.469C256.271 320.48 256.253 320.492 256.241 320.505L256.137 320.664L255.943 320.841C255.926 320.859 255.945 320.964 255.999 321.156C256.057 321.345 256.101 321.455 256.132 321.484C256.176 321.525 256.255 321.484 256.369 321.362L256.445 321.25C256.454 321.239 256.479 321.226 256.519 321.209C256.561 321.19 256.598 321.166 256.63 321.137C256.664 321.106 256.713 321.098 256.776 321.113C256.84 321.129 256.873 321.138 256.875 321.14C256.985 321.242 257.019 321.356 256.978 321.484C256.937 321.611 256.884 321.71 256.819 321.78C256.799 321.801 256.781 321.813 256.763 321.816L256.697 321.872L256.568 322.065C256.532 322.104 256.504 322.129 256.484 322.14C256.462 322.148 256.441 322.163 256.421 322.184C256.412 322.194 256.409 322.221 256.413 322.263C256.417 322.301 256.414 322.34 256.406 322.381C256.397 322.421 256.427 322.476 256.494 322.544C256.56 322.609 256.585 322.72 256.571 322.877C256.577 322.912 256.601 322.962 256.644 323.026C256.684 323.087 256.699 323.15 256.688 323.213C256.678 323.271 256.683 323.315 256.704 323.345C256.821 323.454 256.871 323.604 256.852 323.796C256.853 323.817 256.861 323.834 256.877 323.848C256.942 323.909 256.992 324.012 257.028 324.157C257.063 324.296 257.089 324.394 257.106 324.449L257.11 324.562C257.116 324.587 257.142 324.652 257.189 324.759C257.233 324.863 257.224 324.948 257.164 325.013C257.137 325.042 257.08 325.071 256.993 325.102C256.906 325.133 256.833 325.121 256.773 325.065L256.733 325.013C256.722 324.973 256.697 324.931 256.661 324.887C256.621 324.841 256.608 324.785 256.621 324.719C256.556 324.449 256.48 324.199 256.394 323.968L256.335 323.913C256.33 323.908 256.307 323.838 256.267 323.704C256.227 323.564 256.189 323.459 256.154 323.387C256.159 323.371 256.145 323.329 256.112 323.26C256.082 323.188 256.072 323.128 256.083 323.08C256.056 323.045 256.034 322.993 256.017 322.923C255.999 322.848 255.982 322.804 255.967 322.789C255.941 322.765 255.866 322.8 255.744 322.895C255.734 322.895 255.723 322.902 255.711 322.915C255.681 322.946 255.662 322.977 255.653 323.008C255.642 323.036 255.624 323.063 255.6 323.089C255.583 323.107 255.558 323.123 255.526 323.137C255.491 323.148 255.464 323.159 255.444 323.17C255.31 323.434 255.274 323.596 255.336 323.654C255.449 323.768 255.502 323.873 255.495 323.969C255.488 324.06 255.507 324.139 255.552 324.205C255.595 324.269 255.61 324.332 255.597 324.392C255.584 324.448 255.59 324.488 255.616 324.513C255.734 324.632 255.783 324.783 255.764 324.964C255.76 324.99 255.766 325.01 255.782 325.024C255.834 325.073 255.873 325.156 255.9 325.273C255.929 325.388 255.969 325.502 256.018 325.617L256.015 325.738C256.021 325.763 256.047 325.828 256.093 325.935C256.137 326.039 256.129 326.124 256.068 326.189C256.054 326.205 256.039 326.215 256.024 326.221L255.946 326.258C255.848 326.327 255.765 326.329 255.697 326.266C255.687 326.257 255.65 326.205 255.586 326.112C255.525 326.016 255.504 325.943 255.525 325.895C255.498 325.825 255.485 325.774 255.486 325.741C255.487 325.708 255.477 325.672 255.456 325.633L255.299 325.159ZM255.681 322.195L255.762 322.124C255.76 322.084 255.733 322.027 255.68 321.953C255.627 321.874 255.605 321.815 255.613 321.774C255.619 321.731 255.609 321.687 255.582 321.643C255.586 321.524 255.568 321.447 255.529 321.411C255.508 321.391 255.477 321.404 255.436 321.448L255.288 321.544C255.278 321.544 255.267 321.551 255.255 321.564C255.226 321.595 255.205 321.625 255.194 321.653C255.182 321.681 255.164 321.708 255.14 321.734C255.123 321.752 255.074 321.773 254.995 321.796L254.98 321.812L254.906 321.969C254.852 322.079 254.865 322.235 254.946 322.436C255.026 322.632 255.079 322.742 255.105 322.767C255.125 322.786 255.15 322.78 255.18 322.749C255.197 322.731 255.213 322.707 255.23 322.679C255.247 322.651 255.26 322.631 255.269 322.621C255.274 322.616 255.299 322.605 255.344 322.588L255.361 322.538L255.397 322.499L255.493 322.413C255.51 322.395 255.52 322.378 255.525 322.363L255.539 322.347C255.544 322.342 255.559 322.331 255.584 322.315C255.594 322.315 255.608 322.304 255.628 322.283C255.664 322.244 255.682 322.215 255.681 322.195ZM257.179 319.898L257.017 320.009C256.933 320.073 256.82 320.038 256.677 319.904C256.565 319.8 256.552 319.623 256.639 319.373C256.726 319.118 256.774 318.961 256.785 318.903C256.798 318.842 256.831 318.783 256.884 318.726C256.886 318.645 256.909 318.542 256.953 318.417C256.998 318.29 257.026 318.194 257.037 318.131C257.047 318.063 257.063 318.007 257.084 317.963C257.107 317.917 257.116 317.866 257.109 317.811C257.13 317.768 257.146 317.729 257.157 317.696C257.166 317.661 257.194 317.594 257.241 317.497C257.29 317.397 257.314 317.332 257.313 317.301L257.339 317.157C257.406 317.079 257.437 317.023 257.431 316.988C257.427 316.95 257.452 316.879 257.506 316.773L257.584 316.627C257.599 316.611 257.63 316.604 257.678 316.605C257.628 316.539 257.619 316.487 257.653 316.451L257.774 316.337C257.786 316.261 257.798 316.218 257.807 316.207L257.813 316.169C257.865 316.125 257.904 316.093 257.931 316.075C257.958 316.056 257.997 316.051 258.048 316.059C258.033 316.002 258.035 315.963 258.055 315.942C258.094 315.9 258.157 315.869 258.244 315.848L258.294 315.778C258.355 315.713 258.409 315.697 258.455 315.731C258.499 315.762 258.541 315.78 258.582 315.783C258.622 315.787 258.672 315.801 258.731 315.827L258.807 315.839C258.844 315.831 258.873 315.836 258.894 315.855C258.949 315.906 258.997 316.012 259.037 316.171L259.146 316.47C259.167 316.547 259.178 316.621 259.181 316.691L259.214 316.781C259.222 316.861 259.224 316.921 259.22 316.962C259.217 317.002 259.258 317.068 259.344 317.158C259.366 317.197 259.375 317.235 259.371 317.27C259.367 317.3 259.371 317.331 259.382 317.36C259.346 317.425 259.341 317.488 259.366 317.55L259.528 318.065C259.539 318.09 259.533 318.138 259.51 318.21C259.49 318.278 259.531 318.406 259.633 318.594C259.631 318.539 259.633 318.485 259.639 318.432L259.607 318.27L259.599 317.621C259.597 317.493 259.596 317.409 259.598 317.372C259.596 317.331 259.603 317.301 259.617 317.28C259.603 317.253 259.602 317.205 259.612 317.137C259.622 317.069 259.622 316.995 259.612 316.918L259.612 316.823L259.591 316.76C259.564 316.695 259.567 316.645 259.601 316.608L259.599 316.548C259.561 316.489 259.567 316.433 259.615 316.381C259.615 316.361 259.599 316.334 259.567 316.3C259.536 316.266 259.541 316.226 259.582 316.182L259.611 316.151L259.61 316.136C259.592 316.109 259.585 316.085 259.589 316.065C259.593 316.045 259.587 316.017 259.571 315.982C259.584 315.995 259.589 315.992 259.586 315.974C259.585 315.954 259.575 315.913 259.555 315.851C259.535 315.788 259.533 315.738 259.55 315.7C259.566 315.661 259.565 315.626 259.546 315.594C259.527 315.562 259.524 315.523 259.538 315.477C259.551 315.427 259.56 315.381 259.563 315.34C259.567 315.3 259.577 315.271 259.594 315.252C259.604 315.242 259.629 315.236 259.669 315.235C259.593 315.154 259.599 314.989 259.686 314.739L259.726 314.39C259.743 314.299 259.762 314.234 259.783 314.196C259.802 314.155 259.822 314.081 259.844 313.974C259.862 313.865 259.887 313.786 259.918 313.738C259.949 313.689 260.008 313.617 260.096 313.523L260.184 313.46C260.193 313.429 260.213 313.397 260.245 313.363C260.306 313.298 260.422 313.246 260.595 313.207C260.769 313.166 260.926 313.209 261.064 313.338C261.165 313.433 261.235 313.572 261.271 313.758C261.272 313.788 261.292 313.845 261.33 313.929C261.366 314.011 261.392 314.082 261.41 314.142C261.427 314.197 261.453 314.252 261.487 314.309C261.519 314.363 261.538 314.451 261.542 314.571C261.546 314.687 261.586 314.798 261.663 314.903C261.674 314.918 261.682 314.945 261.689 314.986C261.695 315.026 261.712 315.07 261.739 315.12C261.766 315.164 261.787 315.228 261.802 315.31C261.815 315.39 261.84 315.457 261.877 315.511C261.893 315.526 261.909 315.616 261.925 315.782L262.133 316.216C262.127 316.264 262.158 316.362 262.226 316.508L262.408 316.932C262.436 317.032 262.451 317.097 262.452 317.127L262.546 317.214C262.561 317.287 262.604 317.363 262.675 317.444C262.743 317.522 262.789 317.577 262.813 317.609C262.834 317.638 262.85 317.658 262.861 317.668C262.913 317.716 262.963 317.714 263.011 317.662C263.082 317.587 263.116 317.514 263.113 317.443C263.108 317.371 263.109 317.318 263.115 317.285C263.124 317.249 263.126 317.176 263.123 317.065L263.152 316.611C263.163 316.495 263.17 316.416 263.174 316.376C263.175 316.333 263.197 316.286 263.24 316.234C263.129 315.936 263.115 315.742 263.197 315.654C263.277 315.568 263.341 315.546 263.388 315.59L263.413 315.672L263.509 315.718L263.525 315.733L263.632 315.876C263.643 315.896 263.641 315.95 263.626 316.039C263.658 316.078 263.667 316.131 263.655 316.196C263.642 316.257 263.636 316.318 263.638 316.378L263.565 316.441C263.598 316.506 263.612 316.568 263.609 316.629L263.59 316.822C263.582 316.888 263.571 316.968 263.557 317.061C263.545 317.152 263.519 317.243 263.48 317.332C263.44 317.422 263.421 317.489 263.422 317.534C263.427 317.577 263.418 317.615 263.396 317.649L263.338 317.711L263.278 317.823L263.098 318.071C263.076 318.094 262.933 318.144 262.669 318.218C262.404 318.293 262.146 318.213 261.893 317.978C261.81 317.9 261.758 317.823 261.738 317.745L261.713 317.678C261.702 317.658 261.688 317.619 261.671 317.559C261.653 317.499 261.628 317.437 261.596 317.373C261.616 317.304 261.618 317.262 261.603 317.248C261.598 317.243 261.589 317.239 261.576 317.237C261.563 317.235 261.552 317.229 261.541 317.22C261.521 317.2 261.504 317.165 261.492 317.116L261.418 317.046L261.278 316.492C261.275 316.49 261.238 316.399 261.166 316.22C261.094 316.037 261.059 315.933 261.061 315.911C261.062 315.888 261.059 315.87 261.051 315.858C261.041 315.843 261.03 315.824 261.019 315.799C261.008 315.774 260.992 315.749 260.971 315.725C260.95 315.701 260.936 315.651 260.928 315.575C260.92 315.495 260.903 315.414 260.878 315.332L260.859 315.242C260.85 315.179 260.831 315.12 260.804 315.066C260.774 315.009 260.758 314.964 260.754 314.932C260.721 314.653 260.647 314.446 260.532 314.309C260.517 314.261 260.508 314.216 260.504 314.174C260.497 314.129 260.479 314.092 260.447 314.063L260.371 314.035C260.331 314.12 260.302 314.216 260.283 314.325C260.264 314.429 260.232 314.531 260.188 314.631C260.146 314.728 260.124 314.804 260.12 314.86C260.117 314.91 260.095 315.026 260.053 315.206L260.069 315.323C260.074 315.327 260.074 315.337 260.07 315.353L259.993 315.42C259.988 315.435 259.996 315.461 260.015 315.498C260.033 315.53 260.026 315.577 259.993 315.639C259.989 315.649 260.003 315.694 260.036 315.773C260.032 315.809 260 315.879 259.941 315.984C259.938 316.04 259.949 316.104 259.974 316.176C259.997 316.246 259.991 316.32 259.956 316.399C259.918 316.476 259.9 316.525 259.901 316.545C260.001 316.677 260.027 316.794 259.977 316.893C259.925 316.991 259.925 317.083 259.976 317.169C260.024 317.253 260.028 317.33 259.988 317.399C259.984 317.435 259.99 317.504 260.006 317.606C260.022 317.704 260.022 317.809 260.006 317.92C259.992 318.029 259.996 318.139 260.018 318.252C260.042 318.362 260.049 318.449 260.038 318.512C260.025 318.573 260.03 318.728 260.051 318.976C260.073 319.225 260.089 319.369 260.1 319.409C260.112 319.449 260.122 319.565 260.132 319.759C260.122 319.769 260.104 319.799 260.078 319.848C260.089 319.878 260.095 319.905 260.096 319.93L260.13 320.254C260.143 320.387 260.17 320.556 260.213 320.761C260.201 320.799 260.19 320.83 260.178 320.853C260.179 320.873 260.192 320.9 260.219 320.935L260.244 321.002L260.222 321.142C260.316 321.36 260.303 321.533 260.184 321.661C260.119 321.731 260.005 321.747 259.842 321.707C259.679 321.663 259.597 321.639 259.594 321.637C259.445 321.498 259.359 321.398 259.334 321.336C259.312 321.271 259.298 321.203 259.293 321.13C259.297 321.125 259.285 321.091 259.255 321.029C259.223 320.965 259.203 320.905 259.196 320.85C259.189 320.79 259.168 320.712 259.135 320.618C259.099 320.521 259.094 320.458 259.12 320.429C259.125 320.424 259.138 320.416 259.157 320.406L259.156 320.375L259.052 320.307C259.036 320.273 259.027 320.24 259.026 320.21C259.025 320.18 259.011 320.137 258.984 320.083C258.954 320.026 258.952 319.963 258.977 319.894C258.956 319.875 258.937 319.809 258.921 319.696C258.891 319.629 258.86 319.547 258.829 319.45C258.798 319.348 258.795 319.267 258.82 319.209L258.789 319.18C258.758 319.15 258.739 319.069 258.731 318.936C258.75 318.895 258.743 318.85 258.711 318.801C258.682 318.749 258.672 318.694 258.683 318.636C258.667 318.548 258.647 318.449 258.623 318.339L258.57 318.005C258.565 317.942 258.565 317.898 258.569 317.873C258.491 317.8 258.475 317.739 258.521 317.689C258.526 317.684 258.538 317.676 258.558 317.665C258.513 317.604 258.488 317.552 258.484 317.509C258.48 317.467 258.465 317.428 258.439 317.394C258.41 317.357 258.422 317.284 258.476 317.173L258.407 317.138C258.355 317.011 258.338 316.911 258.358 316.838C258.358 316.822 258.324 316.747 258.256 316.611C258.24 316.596 258.199 316.606 258.132 316.642C258.136 316.674 258.133 316.696 258.123 316.706L257.992 316.824L257.922 316.985C257.883 317.027 257.864 317.053 257.864 317.063L257.832 317.128C257.804 317.195 257.794 317.243 257.8 317.273L257.785 317.289L257.715 317.333L257.7 317.348L257.65 317.63L257.635 317.645L257.5 317.76C257.517 317.824 257.482 317.925 257.393 318.062L257.423 318.163L257.332 318.245C257.323 318.286 257.321 318.33 257.325 318.378C257.329 318.425 257.321 318.466 257.299 318.499C257.203 318.775 257.162 318.984 257.174 319.127C257.178 319.17 257.178 319.209 257.175 319.244C257.173 319.277 257.182 319.322 257.202 319.379L257.229 319.492C257.256 319.546 257.259 319.59 257.237 319.624C257.218 319.655 257.21 319.703 257.212 319.768C257.212 319.831 257.201 319.874 257.179 319.898ZM266.749 319.407L266.734 319.51C266.725 319.55 266.707 319.585 266.681 319.614C266.62 319.679 266.519 319.701 266.377 319.681C266.233 319.664 266.115 319.612 266.024 319.527C265.86 319.375 265.759 319.248 265.72 319.149C265.681 319.055 265.647 318.989 265.618 318.952C265.616 318.95 265.577 318.861 265.503 318.685C265.429 318.513 265.383 318.373 265.364 318.263C265.345 318.152 265.322 318.054 265.296 317.967L265.28 317.922C265.254 317.825 265.246 317.747 265.256 317.688C265.241 317.674 265.232 317.573 265.231 317.387C265.234 317.201 265.244 317.033 265.262 316.884L265.243 316.794C265.263 316.695 265.277 316.64 265.287 316.63L265.435 316.345C265.434 316.305 265.441 316.216 265.456 316.08L265.485 316.048L265.552 315.914C265.58 315.832 265.639 315.722 265.729 315.583C265.82 315.438 265.858 315.345 265.844 315.303C265.83 315.255 265.815 315.214 265.798 315.18C265.784 315.143 265.757 315.062 265.718 314.937C265.683 314.885 265.657 314.844 265.638 314.812C265.619 314.779 265.611 314.757 265.613 314.744C265.617 314.729 265.607 314.69 265.582 314.628C265.555 314.564 265.535 314.507 265.523 314.457C265.528 314.451 265.528 314.446 265.523 314.442L265.434 314.403C265.391 314.324 265.373 314.268 265.379 314.235C265.386 314.197 265.386 314.176 265.381 314.171L265.285 314.133L265.202 313.932C265.192 313.922 265.182 313.922 265.172 313.933C265.14 314.161 265.113 314.286 265.091 314.31C265.097 314.34 265.102 314.397 265.105 314.483C265.079 314.542 265.079 314.597 265.103 314.649L265.082 314.688L265.099 314.748C265.104 314.752 265.102 314.768 265.093 314.793C265.084 314.819 265.071 314.874 265.054 314.961L265.002 315C264.993 315.011 265.007 315.048 265.044 315.112C265.055 315.205 265.047 315.278 265.022 315.332C264.996 315.381 264.986 315.418 264.992 315.443L265.002 315.51L264.957 315.542C264.906 315.597 264.902 315.644 264.943 315.682C264.967 315.704 264.98 315.745 264.982 315.806C264.962 315.826 264.946 315.86 264.932 315.906L264.878 315.964C264.911 316.044 264.902 316.123 264.852 316.203L264.825 316.389L264.786 316.477C264.773 316.523 264.763 316.573 264.758 316.626C264.749 316.676 264.713 316.742 264.648 316.822C264.593 316.839 264.521 316.877 264.433 316.936C264.341 316.992 264.164 316.926 263.9 316.739L263.893 316.747C263.874 316.768 263.861 316.797 263.855 316.835C263.846 316.876 263.837 316.901 263.827 316.912C263.769 316.974 263.714 316.981 263.662 316.933C263.545 316.824 263.509 316.708 263.555 316.585L263.525 316.375L263.512 315.896C263.5 315.558 263.497 315.337 263.503 315.231C263.51 315.125 263.522 315.015 263.541 314.901L263.593 314.578C263.612 314.469 263.628 314.406 263.64 314.388C263.649 314.367 263.654 314.343 263.656 314.315C263.66 314.285 263.685 314.218 263.732 314.116L263.766 314.017C263.853 313.825 263.915 313.708 263.954 313.666L264.013 313.619C264.039 313.59 264.054 313.553 264.058 313.508C264.092 313.471 264.115 313.388 264.128 313.26L264.22 313.083C264.244 313.031 264.268 312.993 264.292 312.967L264.361 312.892C264.412 312.838 264.488 312.843 264.588 312.907C264.691 312.969 264.749 312.993 264.761 312.98C264.766 312.975 264.761 312.941 264.746 312.879L264.758 312.788C264.768 312.724 264.778 312.688 264.788 312.677C264.846 312.615 264.908 312.6 264.975 312.633L264.983 312.64L265.017 312.643C265.164 312.736 265.252 312.795 265.28 312.822C265.405 312.939 265.477 313.057 265.497 313.177C265.519 313.295 265.539 313.372 265.558 313.409C265.72 313.658 265.831 313.858 265.889 314.009C265.905 314.049 265.952 314.151 266.028 314.314L266.031 314.39C266.026 314.405 266.029 314.417 266.04 314.427L266.102 314.47C266.131 314.58 266.166 314.654 266.208 314.693C266.231 314.715 266.26 314.781 266.294 314.89C266.304 314.89 266.339 314.881 266.399 314.864C266.459 314.842 266.543 314.835 266.651 314.844C266.76 314.847 266.83 314.864 266.861 314.893C266.869 314.9 266.906 314.962 266.973 315.078C266.956 315.237 266.917 315.349 266.857 315.414C266.832 315.44 266.78 315.462 266.7 315.48L266.686 315.511L266.671 315.496C266.631 315.523 266.595 315.541 266.563 315.549C266.536 315.558 266.513 315.571 266.496 315.589C266.477 315.61 266.478 315.63 266.499 315.65C266.509 315.66 266.522 315.667 266.537 315.671C266.536 315.699 266.536 315.738 266.538 315.788C266.545 315.796 266.566 315.849 266.6 315.948C266.636 316.05 266.653 316.127 266.65 316.177C266.599 316.237 266.605 316.316 266.669 316.414C266.733 316.513 266.764 316.587 266.76 316.638L266.708 316.662C266.803 316.916 266.848 317.123 266.844 317.285C266.806 317.351 266.788 317.389 266.791 317.396C266.799 317.403 266.813 317.422 266.834 317.451C266.861 317.48 266.875 317.552 266.876 317.665C266.883 317.778 266.881 317.84 266.871 317.85L266.843 317.897L266.844 317.942C266.899 317.988 266.918 318.134 266.901 318.382C266.873 318.496 266.864 318.563 266.875 318.583C266.905 318.65 266.892 318.781 266.836 318.977L266.833 319.113C266.833 319.176 266.823 319.231 266.805 319.277L266.749 319.407ZM264.747 315.032L264.724 314.923C264.718 314.888 264.726 314.848 264.75 314.801C264.776 314.753 264.783 314.701 264.771 314.646C264.74 314.501 264.744 314.366 264.783 314.241L264.792 314.177C264.753 314.067 264.745 313.994 264.769 313.958C264.79 313.92 264.792 313.871 264.775 313.811C264.755 313.749 264.732 313.705 264.706 313.681C264.696 313.671 264.683 313.674 264.669 313.69C264.635 313.726 264.615 313.769 264.609 313.817C264.606 313.862 264.599 313.89 264.589 313.901L264.509 313.971C264.491 314.043 264.462 314.137 264.421 314.254L264.414 314.379C264.405 314.43 264.392 314.47 264.373 314.501C264.356 314.53 264.356 314.564 264.372 314.603C264.386 314.641 264.384 314.67 264.364 314.69L264.351 314.736C264.351 314.756 264.329 314.791 264.283 314.841C264.274 314.881 264.271 314.929 264.273 314.985C264.277 315.037 264.277 315.066 264.272 315.071C264.281 315.192 264.273 315.282 264.248 315.341C264.224 315.397 264.221 315.445 264.238 315.484C264.204 315.546 264.196 315.616 264.211 315.693C264.224 315.768 264.226 315.829 264.217 315.874C264.209 315.915 264.208 315.958 264.214 316.003L264.209 316.071C264.205 316.096 264.22 316.151 264.253 316.236C264.286 316.315 264.314 316.366 264.338 316.388C264.353 316.402 264.369 316.4 264.386 316.382C264.411 316.356 264.437 316.291 264.466 316.187C264.495 316.077 264.509 316.002 264.508 315.962C264.506 315.922 264.509 315.898 264.516 315.89L264.662 315.749C264.643 315.702 264.645 315.655 264.669 315.609C264.695 315.56 264.701 315.51 264.686 315.457C264.672 315.405 264.69 315.312 264.74 315.18L264.71 315.071L264.747 315.032ZM266.058 316.123L265.965 316.254C265.917 316.264 265.886 316.276 265.872 316.292C265.862 316.302 265.862 316.317 265.873 316.337C265.886 316.407 265.857 316.509 265.786 316.642C265.715 316.776 265.676 316.875 265.668 316.941C265.665 317.007 265.653 317.054 265.631 317.082C265.61 317.111 265.603 317.128 265.611 317.136C265.607 317.181 265.607 317.218 265.611 317.245C265.597 317.281 265.588 317.322 265.585 317.367C265.584 317.415 265.573 317.456 265.551 317.489C265.609 317.631 265.629 317.712 265.609 317.733C265.604 317.738 265.59 317.748 265.565 317.764L265.558 317.772C265.594 317.869 265.609 317.932 265.602 317.96C265.596 317.987 265.595 318.016 265.601 318.046C265.61 318.079 265.609 318.124 265.599 318.183C265.586 318.243 265.601 318.306 265.643 318.37C265.688 318.436 265.711 318.487 265.713 318.522C265.714 318.562 265.746 318.617 265.809 318.685L265.842 318.759C265.85 318.782 265.885 318.833 265.946 318.914C266.007 319 266.039 319.045 266.041 319.047C266.078 319.081 266.125 319.096 266.182 319.091C266.179 319.069 266.191 319.038 266.217 318.999L266.338 318.681C266.34 318.669 266.342 318.617 266.344 318.526C266.348 318.438 266.361 318.37 266.382 318.321C266.405 318.27 266.414 318.213 266.41 318.15C266.398 318.1 266.395 318.051 266.401 318.003C266.409 317.952 266.4 317.91 266.374 317.875C266.377 317.767 266.379 317.666 266.378 317.573C266.38 317.482 266.371 317.416 266.352 317.374C266.338 317.332 266.335 317.285 266.343 317.234L266.307 317.171C266.309 317.164 266.315 317.15 266.324 317.129C266.339 317.109 266.324 317.041 266.279 316.927L266.202 316.658C266.198 316.537 266.166 316.412 266.106 316.283L266.11 316.185C266.114 316.17 266.107 316.154 266.089 316.137L266.058 316.123ZM269.025 310.196L269.029 310.083C269.065 310.044 269.07 310.004 269.043 309.965C269.014 309.923 269.011 309.869 269.034 309.803C269.059 309.734 269.06 309.65 269.036 309.55C269.01 309.447 269.017 309.374 269.059 309.33C269.073 309.314 269.103 309.308 269.149 309.311C269.194 309.315 269.225 309.324 269.24 309.338C269.326 309.419 269.39 309.527 269.433 309.664L269.528 309.782L269.553 309.856C269.538 309.915 269.536 309.961 269.547 309.996C269.561 310.028 269.561 310.085 269.549 310.166L269.567 310.256C269.532 310.33 269.526 310.397 269.548 310.457C269.573 310.514 269.571 310.563 269.542 310.605C269.516 310.643 269.507 310.705 269.515 310.791C269.503 310.829 269.486 310.871 269.462 310.917L269.494 310.961C269.496 311.012 269.478 311.073 269.44 311.145C269.405 311.214 269.382 311.27 269.371 311.313C269.359 311.351 269.349 311.376 269.339 311.386C269.293 311.436 269.242 311.473 269.185 311.497C269.125 311.52 269.072 311.551 269.025 311.59C268.995 311.591 268.97 311.584 268.949 311.57C268.928 311.556 268.893 311.547 268.842 311.544C268.789 311.538 268.737 311.511 268.685 311.462L268.625 311.378C268.615 311.368 268.595 311.362 268.568 311.361C268.54 311.359 268.521 311.354 268.51 311.344C268.5 311.334 268.495 311.324 268.494 311.314C268.494 311.304 268.489 311.294 268.478 311.285C268.465 311.272 268.448 311.262 268.428 311.252C268.407 311.243 268.392 311.233 268.382 311.224L268.212 311.022C268.196 311.007 268.184 311.005 268.174 311.016C268.164 311.026 268.159 311.058 268.158 311.111C268.16 311.161 268.144 311.204 268.11 311.241C268.106 311.276 268.123 311.324 268.161 311.383C268.167 311.428 268.166 311.476 268.158 311.526L268.167 311.564C268.18 311.586 268.178 311.62 268.159 311.666C268.138 311.71 268.131 311.746 268.137 311.776L268.139 311.852L268.062 311.919C268.063 311.929 268.073 311.965 268.093 312.027C268.11 312.087 268.115 312.147 268.107 312.208L268.072 312.731C268.064 312.781 268.048 312.851 268.023 312.94L268.025 312.985C267.969 313.322 267.901 313.534 267.821 313.62C267.755 313.69 267.659 313.754 267.533 313.811C267.406 313.869 267.312 313.876 267.25 313.833L267.054 313.722C266.995 313.712 266.934 313.676 266.868 313.616C266.837 313.587 266.819 313.565 266.813 313.55L266.79 313.528L266.654 313.416C266.622 313.386 266.63 313.347 266.676 313.298L266.563 313.207C266.553 313.198 266.533 313.138 266.504 313.028C266.475 312.913 266.462 312.843 266.466 312.818L266.452 312.731C266.418 312.705 266.403 312.656 266.405 312.586C266.405 312.513 266.398 312.447 266.383 312.39C266.368 312.333 266.369 312.251 266.386 312.144L266.378 311.918C266.371 311.742 266.391 311.575 266.435 311.417C266.445 311.397 266.448 311.341 266.445 311.251C266.444 311.158 266.461 311.071 266.496 310.992C266.531 310.908 266.558 310.821 266.577 310.732C266.599 310.641 266.626 310.578 266.658 310.544L266.687 310.513C266.696 310.503 266.728 310.403 266.782 310.215L266.804 310.192C266.813 310.181 266.847 310.166 266.904 310.147L266.911 310.139L266.938 310.047C266.943 310.032 266.952 310.016 266.967 310.001C267.117 309.839 267.312 309.855 267.55 310.048C267.602 310.087 267.638 310.095 267.657 310.075C267.681 310.049 267.668 309.968 267.618 309.834C267.568 309.695 267.616 309.547 267.761 309.391C267.866 309.279 267.989 309.29 268.133 309.423C268.302 309.581 268.392 309.806 268.402 310.097C268.413 310.127 268.429 310.157 268.451 310.186L268.56 310.39L268.568 310.397C268.583 310.412 268.594 310.444 268.601 310.494C268.608 310.54 268.622 310.572 268.642 310.591L268.747 310.674L268.842 310.792C268.892 310.838 268.933 310.859 268.965 310.855C269.022 310.753 269.044 310.661 269.031 310.581C269.018 310.496 269.016 310.443 269.026 310.423L269.046 310.369C269.029 310.309 269.022 310.252 269.025 310.196ZM267.817 311.493C267.769 311.429 267.755 311.358 267.775 311.279C267.795 311.195 267.794 311.134 267.773 311.094C267.782 311.011 267.783 310.88 267.774 310.701C267.767 310.52 267.754 310.42 267.733 310.401C267.725 310.393 267.716 310.395 267.707 310.405L267.699 310.413L267.69 310.463L267.616 310.526L267.555 310.607L267.477 310.636L267.437 310.694L267.349 310.758C267.31 310.8 267.285 310.845 267.274 310.893C267.263 310.936 267.228 311.01 267.169 311.116C267.112 311.218 267.078 311.328 267.067 311.444C267.054 311.558 267.032 311.63 267.003 311.662C267.025 311.716 267.024 311.83 267 312.002C266.963 312.084 266.971 312.167 267.024 312.25C267.016 312.369 267.015 312.432 267.023 312.439L267.064 312.528C267.063 312.566 267.054 312.607 267.038 312.65C267.02 312.691 267.03 312.735 267.069 312.781C267.106 312.825 267.128 312.88 267.136 312.945C267.143 313.005 267.157 313.045 267.178 313.065C267.305 313.183 267.392 313.218 267.438 313.169C267.458 313.148 267.485 313.093 267.519 313.003C267.554 312.909 267.57 312.852 267.57 312.832C267.569 312.811 267.578 312.781 267.597 312.74L267.627 312.629C267.626 312.609 267.63 312.591 267.64 312.576C267.65 312.561 267.654 312.54 267.653 312.515C267.649 312.487 267.656 312.449 267.672 312.401C267.685 312.35 267.686 312.302 267.674 312.257C267.689 312.189 267.716 312.08 267.753 311.93L267.767 311.789C267.794 311.708 267.805 311.652 267.799 311.622C267.793 311.592 267.799 311.549 267.817 311.493ZM265.907 309.729L265.881 309.514C265.877 309.472 265.891 309.409 265.923 309.328C265.864 309.088 265.871 308.866 265.945 308.662C265.899 308.497 265.911 308.377 265.981 308.302C266.059 308.219 266.134 308.179 266.207 308.184L266.343 308.179C266.353 308.179 266.389 308.19 266.45 308.213C266.509 308.234 266.57 308.25 266.633 308.26C266.696 308.265 266.752 308.283 266.801 308.314C266.848 308.343 266.9 308.362 266.958 308.373C267.017 308.384 267.084 308.408 267.161 308.445L267.276 308.479C267.395 308.502 267.465 308.524 267.486 308.543C267.546 308.599 267.556 308.648 267.517 308.689C267.508 308.7 267.484 308.72 267.448 308.749L267.433 308.764C267.423 308.775 267.402 308.813 267.369 308.88C267.238 308.957 267.154 308.993 267.116 308.987C267.111 308.982 267.086 308.98 267.04 308.982C266.998 308.981 266.962 308.977 266.934 308.971C266.906 308.964 266.875 308.964 266.84 308.97C266.802 308.974 266.736 308.964 266.642 308.94C266.548 308.91 266.491 308.906 266.472 308.927C266.462 308.937 266.464 308.951 266.477 308.968C266.49 308.985 266.497 309.004 266.498 309.024C266.469 309.065 266.452 309.123 266.447 309.196C266.442 309.264 266.427 309.366 266.402 309.503L266.364 309.826L266.37 309.905C266.369 309.928 266.358 309.949 266.339 309.97C266.278 310.035 266.197 310.089 266.095 310.13C266.075 310.209 266.05 310.265 266.018 310.299C265.984 310.335 265.942 310.331 265.893 310.284C265.841 310.236 265.838 310.155 265.884 310.043C265.889 310.023 265.887 309.975 265.879 309.9C265.869 309.822 265.878 309.765 265.907 309.729ZM272.903 306.519L272.917 306.503L272.969 306.479C272.974 306.474 272.976 306.466 272.976 306.456C272.932 306.415 272.913 306.359 272.921 306.288C272.884 306.229 272.873 306.165 272.888 306.096C272.905 306.025 272.93 305.912 272.963 305.758L272.968 305.58L272.988 305.511L272.978 305.443C272.971 305.383 272.979 305.34 273.004 305.314C273.04 305.275 273.072 305.269 273.101 305.296L273.146 305.403L273.29 305.508C273.337 305.552 273.363 305.607 273.368 305.675C273.375 305.74 273.382 305.84 273.39 305.973L273.415 306.369L273.371 306.525C273.363 306.566 273.359 306.606 273.361 306.646L273.348 306.919C273.384 306.953 273.4 306.99 273.397 307.03L273.339 307.093L273.325 307.139C273.358 307.203 273.356 307.301 273.32 307.433L273.309 307.525C273.307 307.557 273.299 307.581 273.285 307.597L273.167 307.692L273.114 307.781C273.094 307.802 273.057 307.821 273.002 307.838C272.95 307.852 272.902 307.873 272.857 307.899C272.81 307.924 272.718 307.926 272.582 307.905C272.445 307.88 272.361 307.858 272.33 307.839C272.32 307.829 272.297 307.82 272.261 307.811C272.225 307.797 272.205 307.788 272.2 307.783C272.194 307.778 272.179 307.742 272.154 307.675L272.146 307.668C272.139 307.66 272.113 307.651 272.07 307.64C272.029 307.627 271.988 307.6 271.946 307.561C271.923 307.54 271.886 307.52 271.834 307.501C271.833 307.461 271.827 307.436 271.817 307.426C271.806 307.417 271.788 307.407 271.763 307.398C271.735 307.386 271.715 307.376 271.705 307.366L271.535 307.164L271.423 307.089L271.337 306.994C271.282 306.943 271.233 306.941 271.189 306.988C271.17 307.009 271.16 307.048 271.159 307.106L271.142 307.14C271.11 307.242 271.093 307.319 271.089 307.369C271.084 307.417 271.066 307.457 271.037 307.488C271.038 307.518 271.024 307.561 270.996 307.618L270.991 307.671C270.991 307.691 270.987 307.726 270.979 307.777C270.987 307.784 270.985 307.875 270.974 308.049C270.962 308.218 270.955 308.375 270.953 308.518C270.95 308.662 270.936 308.756 270.91 308.8C270.883 308.838 270.9 308.885 270.96 308.941C270.97 308.951 270.969 308.994 270.957 309.07C270.952 309.075 270.955 309.129 270.967 309.232C270.897 309.244 270.859 309.253 270.854 309.259C270.823 309.292 270.843 309.357 270.914 309.453C270.933 309.5 270.915 309.561 270.86 309.636C270.858 309.644 270.869 309.671 270.893 309.718L270.894 309.748L270.858 309.787C270.853 309.793 270.852 309.825 270.854 309.886C270.853 309.944 270.846 309.988 270.832 310.019C270.871 310.118 270.879 310.179 270.857 310.203C270.848 310.213 270.828 310.224 270.798 310.235C270.771 310.244 270.74 310.259 270.705 310.28C270.671 310.301 270.609 310.305 270.521 310.29C270.432 310.271 270.368 310.243 270.329 310.206C270.04 309.937 269.934 309.734 270.013 309.598L270.004 309.576L269.973 309.547C269.939 309.515 269.929 309.479 269.943 309.438C269.956 309.392 269.957 309.334 269.944 309.264C269.929 309.192 269.924 309.148 269.928 309.133L269.975 309.082C269.985 309.072 269.963 309.041 269.908 308.99C269.892 308.975 269.884 308.956 269.883 308.93C269.882 308.905 269.871 308.88 269.85 308.856C269.827 308.829 269.803 308.773 269.78 308.688C269.757 308.599 269.74 308.549 269.729 308.539L269.707 308.532C269.706 308.653 269.695 308.731 269.673 308.764C269.652 308.798 269.653 308.872 269.677 308.987L269.607 309.038C269.586 309.223 269.569 309.333 269.555 309.369C269.541 309.405 269.544 309.461 269.565 309.539C269.58 309.553 269.582 309.572 269.57 309.595C269.559 309.618 269.548 309.671 269.538 309.755L269.516 309.778C269.456 309.843 269.379 309.832 269.285 309.745L269.139 309.455C269.09 309.366 269.082 309.257 269.116 309.128C269.149 308.993 269.171 308.875 269.182 308.774C269.194 308.673 269.226 308.591 269.28 308.529L269.266 308.465C269.315 308.345 269.317 308.235 269.273 308.136C269.229 308.037 269.233 307.96 269.284 307.905C269.417 307.762 269.573 307.702 269.75 307.726C269.924 307.748 270.043 307.788 270.105 307.846L270.218 307.936C270.254 307.97 270.298 308.025 270.349 308.102C270.366 308.177 270.387 308.225 270.41 308.247C270.431 308.266 270.454 308.263 270.478 308.237C270.493 308.221 270.502 308.191 270.505 308.145C270.506 308.097 270.512 308.049 270.523 308.001C270.536 307.95 270.538 307.916 270.53 307.899C270.492 307.815 270.491 307.729 270.529 307.642C270.566 307.555 270.584 307.496 270.583 307.466L270.588 307.398L270.559 307.312C270.593 307.213 270.608 307.139 270.604 307.092C270.599 307.044 270.612 306.997 270.64 306.95C270.669 306.904 270.687 306.838 270.694 306.752L270.733 306.679L270.752 306.595C270.752 306.585 270.76 306.563 270.776 306.53C270.793 306.497 270.815 306.447 270.843 306.38C270.87 306.309 270.893 306.264 270.91 306.246C271.034 306.113 271.184 306.059 271.361 306.083C271.541 306.104 271.663 306.145 271.728 306.206L271.791 306.279L271.911 306.361L271.927 306.376L272.113 306.607L272.194 306.669C272.316 306.783 272.377 306.888 272.375 306.983C272.368 307.001 272.375 307.02 272.396 307.039L272.431 307.072L272.668 307.147C272.747 307.177 272.793 307.185 272.805 307.172L272.886 307.014C272.91 306.968 272.91 306.913 272.888 306.848C272.897 306.818 272.9 306.752 272.896 306.651C272.869 306.597 272.871 306.553 272.903 306.519Z" fill="#273676"/>
</g>
</g>
</g>
<defs>
<filter id="filter0_d" x="0.171631" y="0.171661" width="471.027" height="471.066" filterUnits="userSpaceOnUse" color-interpolation-filters="sRGB">
<feFlood flood-opacity="0" result="BackgroundImageFix"/>
<feColorMatrix in="SourceAlpha" type="matrix" values="0 0 0 0 0 0 0 0 0 0 0 0 0 0 0 0 0 0 127 0"/>
<feOffset dx="2" dy="4"/>
<feGaussianBlur stdDeviation="8"/>
<feColorMatrix type="matrix" values="0 0 0 0 0 0 0 0 0 0 0 0 0 0 0 0 0 0 0.1 0"/>
<feBlend mode="normal" in2="BackgroundImageFix" result="effect1_dropShadow"/>
<feBlend mode="normal" in="SourceGraphic" in2="effect1_dropShadow" result="shape"/>
</filter>
<filter id="filter1_d" x="22" y="19.1181" width="430.469" height="430.469" filterUnits="userSpaceOnUse" color-interpolation-filters="sRGB">
<feFlood flood-opacity="0" result="BackgroundImageFix"/>
<feColorMatrix in="SourceAlpha" type="matrix" values="0 0 0 0 0 0 0 0 0 0 0 0 0 0 0 0 0 0 127 0"/>
<feOffset dx="2" dy="4"/>
<feGaussianBlur stdDeviation="8"/>
<feColorMatrix type="matrix" values="0 0 0 0 0 0 0 0 0 0 0 0 0 0 0 0 0 0 0.1 0"/>
<feBlend mode="normal" in2="BackgroundImageFix" result="effect1_dropShadow"/>
<feBlend mode="normal" in="SourceGraphic" in2="effect1_dropShadow" result="shape"/>
</filter>
<filter id="filter2_d" x="173" y="73" width="324.144" height="324.144" filterUnits="userSpaceOnUse" color-interpolation-filters="sRGB">
<feFlood flood-opacity="0" result="BackgroundImageFix"/>
<feColorMatrix in="SourceAlpha" type="matrix" values="0 0 0 0 0 0 0 0 0 0 0 0 0 0 0 0 0 0 127 0"/>
<feOffset dx="2" dy="4"/>
<feGaussianBlur stdDeviation="8"/>
<feColorMatrix type="matrix" values="0 0 0 0 0 0 0 0 0 0 0 0 0 0 0 0 0 0 0.1 0"/>
<feBlend mode="normal" in2="BackgroundImageFix" result="effect1_dropShadow"/>
<feBlend mode="normal" in="SourceGraphic" in2="effect1_dropShadow" result="shape"/>
</filter>
</defs>
</svg>
